# xmcd CD database file
# Copyright (C) 1993-1998 Ti Kan
# 
# Track frame offsets:
#     150
#     22412
#     41130
#     63837
# 
# Disc length: 1052 seconds
# 
# Revision: 1
# Processed by: cddbd v1.4b41PL1 Copyright (c) Steve Scherf et al.
# Submitted via: DiscPlay 4.0.4
# 
DISCID=34041a04
DTITLE=Lisa Miller - Hang My Head
DYEAR=1900
DGENRE=
TTITLE0=Hang My Head
TTITLE1=Nobody's An Angel (acoustic)
TTITLE2=Hang My Head (acoustic)
TTITLE3=Steel Guitar
EXTD=
EXTT0=
EXTT1=
EXTT2=
EXTT3=
PLAYORDER=
